<mxfile host="app.diagrams.net" agent="Mozilla/5.0 (Windows NT 10.0; Win64; x64; rv:128.0) Gecko/20100101 Firefox/128.0" version="24.7.6">
  <diagram name="Page-1" id="4auQDAL2aTh6tXEqzpzL">
    <mxGraphModel dx="1050" dy="566" grid="1" gridSize="10" guides="1" tooltips="1" connect="1" arrows="1" fold="1" page="1" pageScale="1" pageWidth="850" pageHeight="1100" math="0" shadow="0">
      <root>
        <mxCell id="0" />
        <mxCell id="1" parent="0" />
        <mxCell id="mQIwiP98GPb8IPxNKFfe-1" value="RETIREMENT PROCESSING" style="swimlane;childLayout=stackLayout;resizeParent=1;resizeParentMax=0;horizontal=1;startSize=20;horizontalStack=0;html=1;swimlaneFillColor=#8ed0f0;fillColor=#8ed0f0;" parent="1" vertex="1">
          <mxGeometry x="40" y="110" width="880" height="740" as="geometry" />
        </mxCell>
        <mxCell id="mQIwiP98GPb8IPxNKFfe-2" value="EMPLOYEE" style="swimlane;startSize=20;horizontal=0;html=1;fillColor=#8ed0f0;" parent="mQIwiP98GPb8IPxNKFfe-1" vertex="1">
          <mxGeometry y="20" width="880" height="250" as="geometry" />
        </mxCell>
        <mxCell id="mQIwiP98GPb8IPxNKFfe-5" value="start" style="ellipse;whiteSpace=wrap;html=1;" parent="mQIwiP98GPb8IPxNKFfe-2" vertex="1">
          <mxGeometry x="50" y="30" width="80" height="40" as="geometry" />
        </mxCell>
        <mxCell id="mQIwiP98GPb8IPxNKFfe-8" value="" style="edgeStyle=orthogonalEdgeStyle;rounded=0;orthogonalLoop=1;jettySize=auto;html=1;" parent="mQIwiP98GPb8IPxNKFfe-2" source="mQIwiP98GPb8IPxNKFfe-6" target="mQIwiP98GPb8IPxNKFfe-7" edge="1">
          <mxGeometry relative="1" as="geometry" />
        </mxCell>
        <mxCell id="mQIwiP98GPb8IPxNKFfe-6" value="&lt;div&gt;fill retirement&lt;/div&gt;&lt;div&gt;form&lt;br&gt;&lt;/div&gt;" style="whiteSpace=wrap;html=1;aspect=fixed;" parent="mQIwiP98GPb8IPxNKFfe-2" vertex="1">
          <mxGeometry x="200" y="10" width="80" height="80" as="geometry" />
        </mxCell>
        <mxCell id="mQIwiP98GPb8IPxNKFfe-10" value="" style="edgeStyle=orthogonalEdgeStyle;rounded=0;orthogonalLoop=1;jettySize=auto;html=1;" parent="mQIwiP98GPb8IPxNKFfe-2" source="mQIwiP98GPb8IPxNKFfe-7" target="mQIwiP98GPb8IPxNKFfe-9" edge="1">
          <mxGeometry relative="1" as="geometry" />
        </mxCell>
        <mxCell id="mQIwiP98GPb8IPxNKFfe-7" value="&lt;div&gt;add attachment&lt;/div&gt;&lt;div&gt;(back to office report etc)&lt;br&gt;&lt;/div&gt;" style="whiteSpace=wrap;html=1;aspect=fixed;" parent="mQIwiP98GPb8IPxNKFfe-2" vertex="1">
          <mxGeometry x="310" y="10" width="80" height="80" as="geometry" />
        </mxCell>
        <mxCell id="mQIwiP98GPb8IPxNKFfe-9" value="&lt;div&gt;submit form&lt;/div&gt;&lt;div&gt;and &lt;br&gt;&lt;/div&gt;&lt;div&gt;attachments&lt;br&gt;&lt;/div&gt;" style="whiteSpace=wrap;html=1;aspect=fixed;" parent="mQIwiP98GPb8IPxNKFfe-2" vertex="1">
          <mxGeometry x="420" y="10" width="80" height="80" as="geometry" />
        </mxCell>
        <mxCell id="mQIwiP98GPb8IPxNKFfe-11" value="" style="endArrow=classic;html=1;rounded=0;exitX=1;exitY=0.5;exitDx=0;exitDy=0;entryX=0;entryY=0.5;entryDx=0;entryDy=0;" parent="mQIwiP98GPb8IPxNKFfe-2" source="mQIwiP98GPb8IPxNKFfe-5" target="mQIwiP98GPb8IPxNKFfe-6" edge="1">
          <mxGeometry width="50" height="50" relative="1" as="geometry">
            <mxPoint x="360" y="150" as="sourcePoint" />
            <mxPoint x="410" y="100" as="targetPoint" />
          </mxGeometry>
        </mxCell>
        <mxCell id="mQIwiP98GPb8IPxNKFfe-13" value="end" style="ellipse;whiteSpace=wrap;html=1;" parent="mQIwiP98GPb8IPxNKFfe-2" vertex="1">
          <mxGeometry x="750" y="25" width="100" height="50" as="geometry" />
        </mxCell>
        <mxCell id="mQIwiP98GPb8IPxNKFfe-16" value="&lt;div&gt;notify,&lt;/div&gt;&lt;div&gt;retirement&lt;/div&gt;&lt;div&gt;rejected&lt;br&gt;&lt;/div&gt;" style="whiteSpace=wrap;html=1;aspect=fixed;" parent="mQIwiP98GPb8IPxNKFfe-2" vertex="1">
          <mxGeometry x="580" y="140" width="60" height="60" as="geometry" />
        </mxCell>
        <mxCell id="mQIwiP98GPb8IPxNKFfe-18" value="" style="endArrow=classic;html=1;rounded=0;exitX=1;exitY=0.5;exitDx=0;exitDy=0;entryX=0;entryY=1;entryDx=0;entryDy=0;" parent="mQIwiP98GPb8IPxNKFfe-2" source="mQIwiP98GPb8IPxNKFfe-16" target="mQIwiP98GPb8IPxNKFfe-13" edge="1">
          <mxGeometry width="50" height="50" relative="1" as="geometry">
            <mxPoint x="360" y="290" as="sourcePoint" />
            <mxPoint x="410" y="240" as="targetPoint" />
            <Array as="points">
              <mxPoint x="765" y="170" />
            </Array>
          </mxGeometry>
        </mxCell>
        <mxCell id="mQIwiP98GPb8IPxNKFfe-3" value="DIRECTOR / HEAD" style="swimlane;startSize=20;horizontal=0;html=1;fillColor=#8ed0f0;" parent="mQIwiP98GPb8IPxNKFfe-1" vertex="1">
          <mxGeometry y="270" width="880" height="250" as="geometry" />
        </mxCell>
        <mxCell id="mQIwiP98GPb8IPxNKFfe-12" value="&lt;div&gt;approve&lt;/div&gt;&lt;div&gt;retirement&lt;/div&gt;&lt;div&gt;?&lt;br&gt;&lt;/div&gt;" style="rhombus;whiteSpace=wrap;html=1;" parent="mQIwiP98GPb8IPxNKFfe-3" vertex="1">
          <mxGeometry x="100" y="70" width="80" height="80" as="geometry" />
        </mxCell>
        <mxCell id="mQIwiP98GPb8IPxNKFfe-4" value="CHIEF ACCOUNTANT" style="swimlane;startSize=20;horizontal=0;html=1;fillColor=#8ed0f0;" parent="mQIwiP98GPb8IPxNKFfe-1" vertex="1">
          <mxGeometry y="520" width="880" height="220" as="geometry" />
        </mxCell>
        <mxCell id="mQIwiP98GPb8IPxNKFfe-21" value="" style="edgeStyle=orthogonalEdgeStyle;rounded=0;orthogonalLoop=1;jettySize=auto;html=1;" parent="mQIwiP98GPb8IPxNKFfe-4" source="mQIwiP98GPb8IPxNKFfe-19" target="mQIwiP98GPb8IPxNKFfe-20" edge="1">
          <mxGeometry relative="1" as="geometry" />
        </mxCell>
        <mxCell id="mQIwiP98GPb8IPxNKFfe-19" value="&lt;div&gt;review &lt;br&gt;&lt;/div&gt;&lt;div&gt;retirement&lt;br&gt;&lt;/div&gt;" style="whiteSpace=wrap;html=1;aspect=fixed;" parent="mQIwiP98GPb8IPxNKFfe-4" vertex="1">
          <mxGeometry x="100" y="30" width="80" height="80" as="geometry" />
        </mxCell>
        <mxCell id="mQIwiP98GPb8IPxNKFfe-20" value="&lt;div&gt;approve&lt;/div&gt;&lt;div&gt;retirement&lt;/div&gt;&lt;div&gt;?&lt;br&gt;&lt;/div&gt;" style="rhombus;whiteSpace=wrap;html=1;" parent="mQIwiP98GPb8IPxNKFfe-4" vertex="1">
          <mxGeometry x="260" y="30" width="80" height="80" as="geometry" />
        </mxCell>
        <mxCell id="mQIwiP98GPb8IPxNKFfe-26" value="&lt;div&gt;record&lt;/div&gt;&lt;div&gt;retirement&lt;br&gt;&lt;/div&gt;" style="whiteSpace=wrap;html=1;aspect=fixed;" parent="mQIwiP98GPb8IPxNKFfe-4" vertex="1">
          <mxGeometry x="790" y="10" width="80" height="80" as="geometry" />
        </mxCell>
        <mxCell id="mQIwiP98GPb8IPxNKFfe-27" value="" style="endArrow=classic;html=1;rounded=0;exitX=0.5;exitY=1;exitDx=0;exitDy=0;entryX=0.75;entryY=1;entryDx=0;entryDy=0;" parent="mQIwiP98GPb8IPxNKFfe-4" source="mQIwiP98GPb8IPxNKFfe-20" target="mQIwiP98GPb8IPxNKFfe-26" edge="1">
          <mxGeometry width="50" height="50" relative="1" as="geometry">
            <mxPoint x="360" y="160" as="sourcePoint" />
            <mxPoint x="820" y="230" as="targetPoint" />
            <Array as="points">
              <mxPoint x="300" y="170" />
              <mxPoint x="850" y="170" />
            </Array>
          </mxGeometry>
        </mxCell>
        <mxCell id="mQIwiP98GPb8IPxNKFfe-28" value="YES" style="edgeLabel;html=1;align=center;verticalAlign=middle;resizable=0;points=[];" parent="mQIwiP98GPb8IPxNKFfe-27" vertex="1" connectable="0">
          <mxGeometry y="1" relative="1" as="geometry">
            <mxPoint as="offset" />
          </mxGeometry>
        </mxCell>
        <mxCell id="mQIwiP98GPb8IPxNKFfe-14" value="" style="endArrow=classic;html=1;rounded=0;exitX=0.5;exitY=1;exitDx=0;exitDy=0;entryX=0.5;entryY=0;entryDx=0;entryDy=0;" parent="mQIwiP98GPb8IPxNKFfe-1" source="mQIwiP98GPb8IPxNKFfe-9" target="mQIwiP98GPb8IPxNKFfe-12" edge="1">
          <mxGeometry width="50" height="50" relative="1" as="geometry">
            <mxPoint x="360" y="170" as="sourcePoint" />
            <mxPoint x="410" y="120" as="targetPoint" />
            <Array as="points">
              <mxPoint x="460" y="290" />
              <mxPoint x="140" y="290" />
            </Array>
          </mxGeometry>
        </mxCell>
        <mxCell id="mQIwiP98GPb8IPxNKFfe-22" value="" style="endArrow=classic;html=1;rounded=0;exitX=1;exitY=0.5;exitDx=0;exitDy=0;entryX=0.75;entryY=1;entryDx=0;entryDy=0;" parent="mQIwiP98GPb8IPxNKFfe-1" source="mQIwiP98GPb8IPxNKFfe-20" target="mQIwiP98GPb8IPxNKFfe-16" edge="1">
          <mxGeometry width="50" height="50" relative="1" as="geometry">
            <mxPoint x="360" y="430" as="sourcePoint" />
            <mxPoint x="700" y="410" as="targetPoint" />
            <Array as="points">
              <mxPoint x="625" y="590" />
            </Array>
          </mxGeometry>
        </mxCell>
        <mxCell id="mQIwiP98GPb8IPxNKFfe-23" value="NO" style="edgeLabel;html=1;align=center;verticalAlign=middle;resizable=0;points=[];" parent="mQIwiP98GPb8IPxNKFfe-22" vertex="1" connectable="0">
          <mxGeometry x="-0.655" y="-5" relative="1" as="geometry">
            <mxPoint as="offset" />
          </mxGeometry>
        </mxCell>
        <mxCell id="mQIwiP98GPb8IPxNKFfe-24" value="" style="endArrow=classic;html=1;rounded=0;exitX=0.5;exitY=1;exitDx=0;exitDy=0;entryX=0.5;entryY=0;entryDx=0;entryDy=0;" parent="mQIwiP98GPb8IPxNKFfe-1" source="mQIwiP98GPb8IPxNKFfe-12" target="mQIwiP98GPb8IPxNKFfe-19" edge="1">
          <mxGeometry width="50" height="50" relative="1" as="geometry">
            <mxPoint x="360" y="430" as="sourcePoint" />
            <mxPoint x="410" y="380" as="targetPoint" />
          </mxGeometry>
        </mxCell>
        <mxCell id="mQIwiP98GPb8IPxNKFfe-25" value="YES" style="edgeLabel;html=1;align=center;verticalAlign=middle;resizable=0;points=[];" parent="mQIwiP98GPb8IPxNKFfe-24" vertex="1" connectable="0">
          <mxGeometry y="1" relative="1" as="geometry">
            <mxPoint as="offset" />
          </mxGeometry>
        </mxCell>
        <mxCell id="mQIwiP98GPb8IPxNKFfe-29" value="" style="endArrow=classic;html=1;rounded=0;exitX=0.5;exitY=0;exitDx=0;exitDy=0;entryX=0.79;entryY=0.96;entryDx=0;entryDy=0;entryPerimeter=0;" parent="mQIwiP98GPb8IPxNKFfe-1" source="mQIwiP98GPb8IPxNKFfe-26" target="mQIwiP98GPb8IPxNKFfe-13" edge="1">
          <mxGeometry width="50" height="50" relative="1" as="geometry">
            <mxPoint x="360" y="630" as="sourcePoint" />
            <mxPoint x="410" y="580" as="targetPoint" />
          </mxGeometry>
        </mxCell>
        <mxCell id="mQIwiP98GPb8IPxNKFfe-15" value="" style="endArrow=classic;html=1;rounded=0;exitX=1;exitY=0.5;exitDx=0;exitDy=0;" parent="1" source="mQIwiP98GPb8IPxNKFfe-12" edge="1">
          <mxGeometry width="50" height="50" relative="1" as="geometry">
            <mxPoint x="400" y="420" as="sourcePoint" />
            <mxPoint x="650" y="330" as="targetPoint" />
            <Array as="points">
              <mxPoint x="650" y="490" />
            </Array>
          </mxGeometry>
        </mxCell>
        <mxCell id="mQIwiP98GPb8IPxNKFfe-17" value="NO" style="edgeLabel;html=1;align=center;verticalAlign=middle;resizable=0;points=[];" parent="mQIwiP98GPb8IPxNKFfe-15" vertex="1" connectable="0">
          <mxGeometry x="-0.2746" y="-1" relative="1" as="geometry">
            <mxPoint as="offset" />
          </mxGeometry>
        </mxCell>
      </root>
    </mxGraphModel>
  </diagram>
</mxfile>
